# xmcd CD database file
#
# Track frame offsets:
#	150
#	19897
#	36275
#	56027
#	72495
#
# Disc length: 1225 seconds
#
# Revision: 0
# Processed by: cddbd v1.5PL3 Copyright (c) Steve Scherf et al.
# Submitted via: CDex 1.51
#
DISCID=4504c705
DTITLE=LOVE and PEACE - DRIFTER
DYEAR=2002
DGENRE=JPop
TTITLE0=DRIFTER
TTITLE1=自転車にのって
TTITLE2=DRIFTER (オリジナル･カラオケ)
TTITLE3=自転車にのって (オリジナル･カラオケ)
TTITLE4=Dreams Come True．．．！！
EXTD=YEAR: 2002
EXTT0=
EXTT1=
EXTT2=
EXTT3=
EXTT4=
PLAYORDER=
